<svg width="38" height="38" viewBox="0 0 38 38" fill="none" xmlns="http://www.w3.org/2000/svg">
<path d="M27.9522 31.6665C28.9655 31.6665 29.8327 31.3055 30.5536 30.5835C31.2756 29.8626 31.6366 28.9854 31.6366 27.952C31.6366 26.9186 31.2756 26.0409 30.5536 25.3189C29.8316 24.5969 28.9645 24.2364 27.9522 24.2375C26.9188 24.2375 26.0364 24.598 25.3049 25.3189C24.5723 26.0409 24.206 26.9186 24.206 27.952C24.206 28.9854 24.5723 29.8626 25.3049 30.5835C26.0374 31.3044 26.9199 31.6654 27.9522 31.6665ZM27.9522 33.2498C26.4744 33.2498 25.222 32.7363 24.1949 31.7093C23.1679 30.6822 22.6544 29.4298 22.6544 27.952C22.6544 26.4943 23.1679 25.2471 24.1949 24.2106C25.222 23.173 26.4744 22.6542 27.9522 22.6542C29.4089 22.6542 30.656 23.173 31.6936 24.2106C32.7312 25.2471 33.25 26.4943 33.25 27.952C33.25 29.4298 32.7312 30.6822 31.6936 31.7093C30.657 32.7363 29.4099 33.2498 27.9522 33.2498ZM23.4761 12.9705C22.9547 12.9705 22.5045 12.7816 22.1255 12.4037C21.7476 12.0247 21.5587 11.5745 21.5587 11.0531C21.5587 10.5316 21.7476 10.0814 22.1255 9.7025C22.5034 9.32356 22.9536 9.13409 23.4761 9.13409C23.9986 9.13409 24.4488 9.32356 24.8267 9.7025C25.2046 10.0814 25.394 10.5316 25.3951 11.0531C25.3962 11.5745 25.2062 12.0247 24.8251 12.4037C24.444 12.7826 23.9944 12.9716 23.4761 12.9705ZM18.1783 29.4752V23.6232L14.4353 20.5151C13.9318 20.0908 13.6705 19.5434 13.6515 18.8732C13.6325 18.2029 13.8748 17.6329 14.3783 17.1632L17.3011 14.2657C17.7455 13.8424 18.2812 13.6218 18.9082 13.6038C19.5352 13.5859 20.0714 13.8097 20.5169 14.2752L22.0654 15.7619C23.1378 16.7964 24.1643 17.4524 25.1449 17.73C26.1255 18.0076 27.0713 18.1459 27.9823 18.1448V19.7282C26.5815 19.7282 25.2378 19.4521 23.9511 18.9001C22.6644 18.348 21.5539 17.5759 20.6198 16.5837L20.102 16.0659L16.4414 19.6981L19.7616 22.9867V29.4736L18.1783 29.4752ZM10.0479 31.6665C11.0812 31.6665 11.9589 31.3055 12.6809 30.5835C13.4019 29.8626 13.7624 28.9854 13.7624 27.952C13.7624 26.9186 13.4024 26.0404 12.6825 25.3173C11.9626 24.5943 11.0849 24.2338 10.0494 24.2359C9.01394 24.238 8.13677 24.5985 7.41794 25.3173C6.6991 26.0362 6.33758 26.9144 6.33335 27.952C6.32913 28.9896 6.69013 29.8668 7.41635 30.5835C8.14258 31.3002 9.01974 31.6612 10.0479 31.6665ZM7.37835 12.3023L12.0793 7.59984L11.096 6.60709L7.41635 10.2852L5.83302 8.7335L4.84185 9.73417L7.37835 12.3023ZM10.0479 33.2498C8.59119 33.2498 7.34405 32.7363 6.30644 31.7093C5.26883 30.6822 4.75002 29.4298 4.75002 27.952C4.75002 26.4943 5.26883 25.2466 6.30644 24.209C7.34405 23.1714 8.59119 22.6531 10.0479 22.6542C11.5256 22.6542 12.778 23.1724 13.8051 24.209C14.8322 25.2466 15.3457 26.4943 15.3457 27.952C15.3457 29.4298 14.8322 30.6822 13.8051 31.7093C12.778 32.7363 11.5256 33.2498 10.0479 33.2498ZM8.46452 16.5029C6.88752 16.1155 5.6103 15.2442 4.63285 13.8888C3.65541 12.5346 3.16669 10.9861 3.16669 9.24334V5.22484L8.46452 3.1665L13.7624 5.22484V9.24492C13.7624 10.9866 13.2736 12.5346 12.2962 13.8888C11.3187 15.2442 10.0415 16.1155 8.46452 16.5029Z" fill="white"/>
</svg>
