<svg width="21" height="21" viewBox="0 0 21 21" fill="none" xmlns="http://www.w3.org/2000/svg">
<path d="M17.6582 14.3864C17.2246 13.6396 16.58 11.5263 16.58 8.76611C16.58 7.10851 15.9215 5.5188 14.7494 4.3467C13.5773 3.17459 11.9876 2.51611 10.33 2.51611C8.67242 2.51611 7.08271 3.17459 5.91061 4.3467C4.73851 5.5188 4.08003 7.10851 4.08003 8.76611C4.08003 11.5271 3.43471 13.6396 3.00112 14.3864C2.89039 14.5763 2.83169 14.792 2.83094 15.0118C2.83019 15.2316 2.8874 15.4477 2.99682 15.6384C3.10624 15.829 3.264 15.9874 3.45417 16.0976C3.64435 16.2078 3.86022 16.266 4.08003 16.2661H7.26831C7.41251 16.9717 7.79598 17.6058 8.35388 18.0613C8.91178 18.5167 9.60985 18.7654 10.33 18.7654C11.0502 18.7654 11.7483 18.5167 12.3062 18.0613C12.8641 17.6058 13.2475 16.9717 13.3917 16.2661H16.58C16.7998 16.2658 17.0155 16.2076 17.2056 16.0973C17.3957 15.9871 17.5533 15.8286 17.6626 15.638C17.772 15.4474 17.8291 15.2314 17.8283 15.0116C17.8275 14.7919 17.7688 14.5762 17.6582 14.3864ZM10.33 17.5161C9.94239 17.516 9.56431 17.3957 9.24784 17.1719C8.93137 16.948 8.69205 16.6316 8.56284 16.2661H12.0972C11.968 16.6316 11.7287 16.948 11.4122 17.1719C11.0957 17.3957 10.7177 17.516 10.33 17.5161ZM4.08003 15.0161C4.68159 13.9817 5.33003 11.5849 5.33003 8.76611C5.33003 7.44003 5.85681 6.16826 6.79449 5.23058C7.73217 4.2929 9.00394 3.76611 10.33 3.76611C11.6561 3.76611 12.9279 4.2929 13.8656 5.23058C14.8032 6.16826 15.33 7.44003 15.33 8.76611C15.33 11.5825 15.9769 13.9794 16.58 15.0161H4.08003Z" fill="white" fill-opacity="0.5"/>
</svg>
