<svg width="21" height="21" viewBox="0 0 21 21" fill="none" xmlns="http://www.w3.org/2000/svg">
<path d="M18.7974 8.38935C18.7193 8.14913 18.5718 7.93742 18.3736 7.78087C18.1753 7.62433 17.9352 7.52996 17.6834 7.50966L13.074 7.13778L11.2943 2.83388C11.1981 2.59936 11.0343 2.39876 10.8237 2.25758C10.6132 2.1164 10.3654 2.04102 10.1119 2.04102C9.85839 2.04102 9.61062 2.1164 9.40007 2.25758C9.18953 2.39876 9.02572 2.59936 8.92947 2.83388L7.15135 7.137L2.53963 7.50966C2.28742 7.53099 2.04712 7.62627 1.84883 7.78357C1.65053 7.94087 1.50307 8.15318 1.42491 8.39392C1.34675 8.63466 1.34137 8.8931 1.40944 9.13688C1.47752 9.38066 1.61602 9.59893 1.8076 9.76435L5.32322 12.7979L4.25213 17.3339C4.19222 17.5803 4.20689 17.839 4.29427 18.077C4.38164 18.3151 4.53779 18.5219 4.74288 18.671C4.94797 18.8202 5.19276 18.9051 5.44617 18.9149C5.69958 18.9247 5.9502 18.859 6.16619 18.7261L10.1115 16.2979L14.0592 18.7261C14.2752 18.8574 14.5253 18.9218 14.778 18.9113C15.0306 18.9008 15.2745 18.8157 15.4788 18.6669C15.6832 18.518 15.839 18.312 15.9266 18.0748C16.0141 17.8376 16.0295 17.5798 15.9709 17.3339L14.8959 12.7972L18.4115 9.76356C18.6046 9.59843 18.7444 9.37968 18.8131 9.13505C18.8818 8.89041 18.8764 8.63088 18.7974 8.38935ZM17.599 8.81669L13.7943 12.0979C13.7075 12.1727 13.643 12.2699 13.6077 12.3789C13.5725 12.4879 13.5678 12.6045 13.5943 12.7159L14.7568 17.6222C14.7598 17.6289 14.7601 17.6366 14.7577 17.6436C14.7552 17.6505 14.7501 17.6563 14.7435 17.6597C14.7295 17.6706 14.7256 17.6683 14.7138 17.6597L10.4388 15.0308C10.3404 14.9702 10.2271 14.9382 10.1115 14.9382C9.99593 14.9382 9.88261 14.9702 9.78416 15.0308L5.50916 17.6612C5.49744 17.6683 5.49432 17.6706 5.47947 17.6612C5.47288 17.6579 5.46782 17.6521 5.46535 17.6451C5.46288 17.6381 5.46318 17.6305 5.46619 17.6237L6.62869 12.7175C6.65518 12.606 6.65054 12.4894 6.61527 12.3805C6.58 12.2715 6.51546 12.1743 6.42869 12.0995L2.624 8.81825C2.61463 8.81044 2.60603 8.80341 2.61385 8.77919C2.62166 8.75497 2.62791 8.7581 2.63963 8.75653L7.63338 8.35341C7.74792 8.34358 7.85753 8.30236 7.95015 8.23427C8.04278 8.16618 8.11483 8.07386 8.15838 7.96747L10.0818 3.31044C10.0881 3.29716 10.0904 3.29091 10.1092 3.29091C10.1279 3.29091 10.1303 3.29716 10.1365 3.31044L12.0646 7.96747C12.1086 8.0739 12.1811 8.16612 12.2742 8.23395C12.3672 8.30177 12.4772 8.34257 12.592 8.35185L17.5857 8.75497C17.5974 8.75497 17.6045 8.75497 17.6115 8.77763C17.6185 8.80028 17.6115 8.80888 17.599 8.81669Z" fill="white" fill-opacity="0.5"/>
</svg>
