<svg width="38" height="38" viewBox="0 0 38 38" fill="none" xmlns="http://www.w3.org/2000/svg">
<path d="M24.3438 11.875C25.1658 11.875 25.9693 11.6312 26.6528 11.1745C27.3363 10.7179 27.869 10.0687 28.1836 9.30928C28.4982 8.54982 28.5805 7.71414 28.4201 6.90791C28.2598 6.10167 27.8639 5.3611 27.2827 4.77984C26.7014 4.19858 25.9608 3.80273 25.1546 3.64236C24.3484 3.48199 23.5127 3.5643 22.7532 3.87888C21.9938 4.19345 21.3447 4.72617 20.888 5.40966C20.4313 6.09316 20.1875 6.89672 20.1875 7.71875C20.1875 8.82106 20.6254 9.87822 21.4048 10.6577C22.1843 11.4371 23.2414 11.875 24.3438 11.875ZM24.3438 5.9375C24.6961 5.9375 25.0404 6.04197 25.3334 6.2377C25.6263 6.43342 25.8546 6.71162 25.9894 7.0371C26.1242 7.36258 26.1595 7.72073 26.0908 8.06626C26.022 8.41179 25.8524 8.72917 25.6033 8.97829C25.3542 9.2274 25.0368 9.39705 24.6913 9.46578C24.3457 9.53451 23.9876 9.49923 23.6621 9.36441C23.3366 9.22959 23.0584 9.00129 22.8627 8.70836C22.667 8.41544 22.5625 8.07105 22.5625 7.71875C22.5625 7.24634 22.7502 6.79327 23.0842 6.45922C23.4183 6.12517 23.8713 5.9375 24.3438 5.9375ZM29.6875 20.1875C28.5132 20.1875 27.3652 20.5357 26.3888 21.1882C25.4124 21.8406 24.6514 22.7679 24.202 23.8528C23.7526 24.9378 23.635 26.1316 23.8641 27.2834C24.0932 28.4351 24.6587 29.4931 25.4891 30.3234C26.3194 31.1538 27.3774 31.7193 28.5292 31.9484C29.6809 32.1775 30.8748 32.0599 31.9597 31.6105C33.0446 31.1611 33.9719 30.4001 34.6244 29.4237C35.2768 28.4473 35.625 27.2993 35.625 26.125C35.625 24.5503 34.9994 23.0401 33.8859 21.9266C32.7725 20.8131 31.2622 20.1875 29.6875 20.1875ZM29.6875 29.6875C28.9829 29.6875 28.2941 29.4786 27.7083 29.0871C27.1224 28.6957 26.6658 28.1393 26.3962 27.4883C26.1265 26.8374 26.056 26.121 26.1935 25.43C26.3309 24.7389 26.6702 24.1042 27.1684 23.6059C27.6667 23.1077 28.3014 22.7684 28.9925 22.631C29.6835 22.4935 30.3999 22.564 31.0508 22.8337C31.7018 23.1033 32.2582 23.5599 32.6496 24.1458C33.0411 24.7316 33.25 25.4204 33.25 26.125C33.25 27.0698 32.8747 27.976 32.2066 28.6441C31.5385 29.3122 30.6323 29.6875 29.6875 29.6875ZM8.3125 20.1875C7.13818 20.1875 5.99022 20.5357 5.0138 21.1882C4.03739 21.8406 3.27636 22.7679 2.82697 23.8528C2.37757 24.9378 2.25999 26.1316 2.48909 27.2834C2.71819 28.4351 3.28368 29.4931 4.11406 30.3234C4.94443 31.1538 6.00239 31.7193 7.15415 31.9484C8.30592 32.1775 9.49975 32.0599 10.5847 31.6105C11.6696 31.1611 12.5969 30.4001 13.2494 29.4237C13.9018 28.4473 14.25 27.2993 14.25 26.125C14.25 25.3453 14.0964 24.5732 13.798 23.8528C13.4997 23.1324 13.0623 22.4779 12.5109 21.9266C11.9596 21.3752 11.3051 20.9379 10.5847 20.6395C9.86431 20.3411 9.09223 20.1875 8.3125 20.1875ZM8.3125 29.6875C7.60791 29.6875 6.91913 29.4786 6.33328 29.0871C5.74743 28.6957 5.29082 28.1393 5.02118 27.4883C4.75154 26.8374 4.681 26.121 4.81846 25.43C4.95591 24.7389 5.29521 24.1042 5.79343 23.6059C6.29166 23.1077 6.92644 22.7684 7.61749 22.631C8.30855 22.4935 9.02485 22.564 9.67581 22.8337C10.3268 23.1033 10.8832 23.5599 11.2746 24.1458C11.6661 24.7316 11.875 25.4204 11.875 26.125C11.875 27.0698 11.4997 27.976 10.8316 28.6441C10.1635 29.3122 9.25734 29.6875 8.3125 29.6875ZM28.5 17.8125H22.5625C22.4065 17.8126 22.252 17.782 22.1079 17.7224C21.9637 17.6628 21.8327 17.5754 21.7223 17.4652L17.8125 13.5538L14.7413 16.625L19.8402 21.7223C19.9504 21.8327 20.0378 21.9637 20.0974 22.1079C20.157 22.252 20.1876 22.4065 20.1875 22.5625V29.6875C20.1875 30.0024 20.0624 30.3045 19.8397 30.5272C19.617 30.7499 19.3149 30.875 19 30.875C18.6851 30.875 18.383 30.7499 18.1603 30.5272C17.9376 30.3045 17.8125 30.0024 17.8125 29.6875V23.0538L12.2223 17.4652C12.1119 17.3549 12.0243 17.2239 11.9646 17.0797C11.9048 16.9356 11.8741 16.7811 11.8741 16.625C11.8741 16.4689 11.9048 16.3144 11.9646 16.1703C12.0243 16.0261 12.1119 15.8951 12.2223 15.7848L16.9723 11.0348C17.0826 10.9244 17.2136 10.8368 17.3578 10.7771C17.5019 10.7173 17.6564 10.6866 17.8125 10.6866C17.9686 10.6866 18.1231 10.7173 18.2672 10.7771C18.4114 10.8368 18.5424 10.9244 18.6527 11.0348L23.0538 15.4375H28.5C28.8149 15.4375 29.117 15.5626 29.3397 15.7853C29.5624 16.008 29.6875 16.3101 29.6875 16.625C29.6875 16.9399 29.5624 17.242 29.3397 17.4647C29.117 17.6874 28.8149 17.8125 28.5 17.8125Z" fill="white"/>
</svg>
