<svg width="39" height="39" viewBox="0 0 39 39" fill="none" xmlns="http://www.w3.org/2000/svg">
<path d="M20.3088 12.6802V19.1328L25.6704 22.3494C25.9405 22.5116 26.135 22.7745 26.2113 23.0801C26.2876 23.3858 26.2393 23.7092 26.0771 23.9793C25.9149 24.2493 25.6521 24.4439 25.3464 24.5202C25.0408 24.5965 24.7173 24.5482 24.4473 24.386L18.5098 20.8235C18.334 20.7179 18.1886 20.5686 18.0877 20.3902C17.9868 20.2118 17.9338 20.0102 17.9338 19.8052V12.6802C17.9338 12.3653 18.0589 12.0632 18.2816 11.8405C18.5043 11.6178 18.8064 11.4927 19.1213 11.4927C19.4363 11.4927 19.7383 11.6178 19.961 11.8405C20.1837 12.0632 20.3088 12.3653 20.3088 12.6802ZM19.1213 5.55522C17.248 5.55055 15.3924 5.91746 13.6619 6.6347C11.9313 7.35194 10.3602 8.40527 9.03946 9.73374C7.96032 10.8262 7.00142 11.8772 6.05884 12.9771V10.3052C6.05884 9.99028 5.93373 9.68823 5.71103 9.46553C5.48833 9.24283 5.18628 9.11772 4.87134 9.11772C4.55639 9.11772 4.25435 9.24283 4.03165 9.46553C3.80895 9.68823 3.68384 9.99028 3.68384 10.3052V16.2427C3.68384 16.5577 3.80895 16.8597 4.03165 17.0824C4.25435 17.3051 4.55639 17.4302 4.87134 17.4302H10.8088C11.1238 17.4302 11.4258 17.3051 11.6485 17.0824C11.8712 16.8597 11.9963 16.5577 11.9963 16.2427C11.9963 15.9278 11.8712 15.6257 11.6485 15.403C11.4258 15.1803 11.1238 15.0552 10.8088 15.0552H7.39478C8.4561 13.8054 9.51298 12.6283 10.7183 11.4081C12.3687 9.75771 14.4689 8.63026 16.7564 8.16665C19.0439 7.70303 21.4173 7.9238 23.5801 8.80138C25.7428 9.67895 27.599 11.1744 28.9167 13.1009C30.2344 15.0274 30.9552 17.2995 30.9889 19.6333C31.0227 21.967 30.368 24.259 29.1065 26.2228C27.8451 28.1866 26.033 29.7351 23.8965 30.6749C21.76 31.6147 19.394 31.904 17.094 31.5068C14.7941 31.1095 12.6622 30.0433 10.9647 28.4413C10.8512 28.3341 10.7178 28.2503 10.5719 28.1946C10.4261 28.139 10.2707 28.1126 10.1147 28.1171C9.95867 28.1215 9.80504 28.1566 9.66257 28.2204C9.5201 28.2841 9.3916 28.3754 9.28438 28.4888C9.17717 28.6023 9.09336 28.7357 9.03772 28.8816C8.98209 29.0274 8.95572 29.1828 8.96013 29.3388C8.96454 29.4948 8.99964 29.6485 9.06343 29.7909C9.12721 29.9334 9.21843 30.0619 9.33188 30.1691C11.0233 31.7652 13.0796 32.9231 15.3213 33.5418C17.5631 34.1604 19.9222 34.221 22.1928 33.7182C24.4634 33.2154 26.5764 32.1646 28.3475 30.6574C30.1185 29.1502 31.4938 27.2324 32.3532 25.0715C33.2127 22.9106 33.5302 20.5721 33.2781 18.2603C33.0259 15.9484 32.2118 13.7334 30.9068 11.8085C29.6017 9.88362 27.8454 8.3074 25.7911 7.2174C23.7368 6.12739 21.4469 5.55673 19.1213 5.55522Z" fill="white"/>
</svg>
