<svg width="21" height="21" viewBox="0 0 21 21" fill="none" xmlns="http://www.w3.org/2000/svg">
<g clip-path="url(#clip0_15_1879)">
<path d="M16.3444 4.91924C15.5968 4.16406 14.7075 3.56378 13.7275 3.15276C12.7476 2.74174 11.6962 2.52805 10.6335 2.52393H10.5718C8.41689 2.52393 6.35027 3.37995 4.82653 4.90368C3.3028 6.42742 2.44678 8.49404 2.44678 10.6489V15.0239C2.44678 15.5212 2.64432 15.9981 2.99595 16.3498C3.34758 16.7014 3.8245 16.8989 4.32178 16.8989H5.57178C6.06906 16.8989 6.54597 16.7014 6.8976 16.3498C7.24923 15.9981 7.44678 15.5212 7.44678 15.0239V11.8989C7.44678 11.4016 7.24923 10.9247 6.8976 10.5731C6.54597 10.2215 6.06906 10.0239 5.57178 10.0239H3.7249C3.84544 8.72075 4.33493 7.47893 5.13602 6.44401C5.9371 5.40909 7.01659 4.62395 8.24795 4.18062C9.47931 3.73728 10.8115 3.65412 12.0885 3.94088C13.3654 4.22764 14.5341 4.87244 15.4577 5.79971C16.5865 6.93432 17.2809 8.42944 17.4194 10.0239H15.5718C15.0745 10.0239 14.5976 10.2215 14.246 10.5731C13.8943 10.9247 13.6968 11.4016 13.6968 11.8989V15.0239C13.6968 15.5212 13.8943 15.9981 14.246 16.3498C14.5976 16.7014 15.0745 16.8989 15.5718 16.8989H17.4468C17.4468 17.3962 17.2492 17.8731 16.8976 18.2248C16.546 18.5764 16.0691 18.7739 15.5718 18.7739H11.1968C11.031 18.7739 10.872 18.8398 10.7548 18.957C10.6376 19.0742 10.5718 19.2332 10.5718 19.3989C10.5718 19.5647 10.6376 19.7237 10.7548 19.8409C10.872 19.9581 11.031 20.0239 11.1968 20.0239H15.5718C16.4006 20.0239 17.1954 19.6947 17.7815 19.1086C18.3675 18.5226 18.6968 17.7277 18.6968 16.8989V10.6489C18.7008 9.58609 18.4952 8.5329 18.0915 7.5497C17.6878 6.56649 17.0941 5.6726 16.3444 4.91924ZM5.57178 11.2739C5.73754 11.2739 5.89651 11.3398 6.01372 11.457C6.13093 11.5742 6.19678 11.7332 6.19678 11.8989V15.0239C6.19678 15.1897 6.13093 15.3487 6.01372 15.4659C5.89651 15.5831 5.73754 15.6489 5.57178 15.6489H4.32178C4.15602 15.6489 3.99705 15.5831 3.87984 15.4659C3.76263 15.3487 3.69678 15.1897 3.69678 15.0239V11.2739H5.57178ZM15.5718 15.6489C15.406 15.6489 15.247 15.5831 15.1298 15.4659C15.0126 15.3487 14.9468 15.1897 14.9468 15.0239V11.8989C14.9468 11.7332 15.0126 11.5742 15.1298 11.457C15.247 11.3398 15.406 11.2739 15.5718 11.2739H17.4468V15.6489H15.5718Z" fill="white" fill-opacity="0.5"/>
</g>
<defs>
<clipPath id="clip0_15_1879">
<rect width="20" height="20" fill="white" transform="translate(0.571777 0.648926)"/>
</clipPath>
</defs>
</svg>
