<svg width="38" height="38" viewBox="0 0 38 38" fill="none" xmlns="http://www.w3.org/2000/svg">
<path d="M17.4043 23.4414C18.9959 22.3819 20.2042 20.8383 20.8506 19.0389C21.497 17.2395 21.5472 15.2798 20.9937 13.4497C20.4402 11.6195 19.3125 10.0161 17.7773 8.8765C16.242 7.73689 14.3808 7.12158 12.4688 7.12158C10.5568 7.12158 8.69557 7.73689 7.16033 8.8765C5.62509 10.0161 4.49734 11.6195 3.94387 13.4497C3.39039 15.2798 3.44056 17.2395 4.08697 19.0389C4.73338 20.8383 5.9417 22.3819 7.53325 23.4414C4.65429 24.5025 2.19559 26.4661 0.524028 29.039C0.436176 29.1696 0.375154 29.3163 0.344509 29.4707C0.313864 29.6251 0.314207 29.784 0.345518 29.9382C0.37683 30.0924 0.438485 30.2389 0.526899 30.3691C0.615314 30.4993 0.728724 30.6106 0.860539 30.6966C0.992354 30.7825 1.13994 30.8414 1.29473 30.8699C1.44951 30.8983 1.6084 30.8957 1.76217 30.8622C1.91593 30.8287 2.0615 30.7649 2.19041 30.6747C2.31933 30.5844 2.42901 30.4694 2.51309 30.3364C3.59132 28.678 5.06674 27.3152 6.80536 26.3719C8.54398 25.4285 10.4907 24.9344 12.4688 24.9344C14.4469 24.9344 16.3936 25.4285 18.1322 26.3719C19.8708 27.3152 21.3463 28.678 22.4245 30.3364C22.5987 30.5952 22.8677 30.7752 23.1735 30.8372C23.4792 30.8993 23.7972 30.8385 24.0585 30.6681C24.3198 30.4976 24.5036 30.2312 24.57 29.9264C24.6364 29.6215 24.5802 29.3028 24.4136 29.039C22.742 26.4661 20.2833 24.5025 17.4043 23.4414ZM5.93754 16.0314C5.93754 14.7397 6.32059 13.4769 7.03826 12.4029C7.75592 11.3288 8.77596 10.4917 9.96939 9.99736C11.1628 9.50302 12.476 9.37368 13.743 9.62569C15.0099 9.8777 16.1737 10.4997 17.0871 11.4132C18.0005 12.3266 18.6225 13.4903 18.8745 14.7573C19.1266 16.0242 18.9972 17.3374 18.5029 18.5308C18.0085 19.7243 17.1714 20.7443 16.0974 21.462C15.0233 22.1796 13.7606 22.5627 12.4688 22.5627C10.7372 22.5607 9.07709 21.872 7.85267 20.6476C6.62825 19.4231 5.93951 17.763 5.93754 16.0314ZM37.1302 30.6822C36.8664 30.8542 36.5451 30.9144 36.237 30.8496C35.9288 30.7847 35.6591 30.6001 35.487 30.3364C34.4101 28.677 32.9348 27.3137 31.1958 26.3707C29.4569 25.4277 27.5095 24.935 25.5313 24.9377C25.2163 24.9377 24.9143 24.8126 24.6916 24.5899C24.4689 24.3672 24.3438 24.0651 24.3438 23.7502C24.3438 23.4353 24.4689 23.1332 24.6916 22.9105C24.9143 22.6878 25.2163 22.5627 25.5313 22.5627C26.4931 22.5618 27.4429 22.3485 28.3127 21.9379C29.1825 21.5274 29.9509 20.9299 30.5631 20.188C31.1752 19.446 31.6159 18.5781 31.8536 17.6461C32.0914 16.7141 32.1204 15.7411 31.9386 14.7967C31.7568 13.8522 31.3686 12.9595 30.8017 12.1825C30.2349 11.4054 29.5034 10.7631 28.6596 10.3015C27.8158 9.83991 26.8804 9.57037 25.9204 9.51217C24.9603 9.45396 23.9992 9.60852 23.1058 9.9648C22.9602 10.0278 22.8033 10.0609 22.6447 10.0623C22.486 10.0636 22.3286 10.0331 22.1819 9.97261C22.0352 9.91211 21.9021 9.82282 21.7905 9.71001C21.6789 9.5972 21.591 9.46317 21.5321 9.31582C21.4731 9.16848 21.4443 9.01081 21.4473 8.85215C21.4504 8.69348 21.4852 8.53703 21.5497 8.39204C21.6142 8.24705 21.7071 8.11646 21.823 8.00799C21.9388 7.89952 22.0752 7.81537 22.2241 7.76051C24.2688 6.94507 26.543 6.91572 28.608 7.67814C30.673 8.44055 32.3826 9.94069 33.4068 11.8892C34.431 13.8377 34.6974 16.0964 34.1545 18.2297C33.6116 20.363 32.2979 22.2196 30.4668 23.4414C33.3458 24.5025 35.8045 26.4661 37.4761 29.039C37.6481 29.3028 37.7083 29.6241 37.6434 29.9322C37.5785 30.2404 37.3939 30.5102 37.1302 30.6822Z" fill="white"/>
</svg>
