<svg width="20" height="20" viewBox="0 0 20 20" fill="none" xmlns="http://www.w3.org/2000/svg">
<path d="M16.0983 11.2498H12.8691C12.4411 11.2494 12.0303 11.4187 11.727 11.7207C11.4236 12.0227 11.2523 12.4326 11.2508 12.8607V16.0898C11.2506 16.3024 11.2923 16.513 11.3735 16.7094C11.4548 16.9059 11.574 17.0843 11.7243 17.2347C11.8746 17.385 12.0531 17.5042 12.2496 17.5854C12.446 17.6667 12.6565 17.7084 12.8691 17.7082H16.0983C16.5262 17.7064 16.9359 17.5351 17.2377 17.2317C17.5395 16.9284 17.7087 16.5177 17.7083 16.0898V12.8607C17.7085 12.6492 17.667 12.4397 17.5862 12.2443C17.5054 12.0489 17.3868 11.8713 17.2372 11.7217C17.0877 11.5722 16.9101 11.4536 16.7147 11.3728C16.5192 11.2919 16.3098 11.2505 16.0983 11.2507M7.13079 11.2498H3.90163C3.47379 11.2523 3.0643 11.4239 2.76262 11.7273C2.46095 12.0307 2.29162 12.4412 2.29163 12.869V16.0982C2.29141 16.3097 2.3329 16.5191 2.41373 16.7146C2.49457 16.91 2.61315 17.0876 2.7627 17.2371C2.91224 17.3866 3.08981 17.5052 3.28525 17.5861C3.48068 17.6669 3.69014 17.7084 3.90163 17.7082H7.13079C7.5587 17.7086 7.96932 17.5394 8.27268 17.2376C8.57603 16.9358 8.74736 16.5261 8.74913 16.0982V12.869C8.74935 12.6564 8.70764 12.4459 8.62639 12.2494C8.54513 12.053 8.42594 11.8745 8.27562 11.7242C8.1253 11.5739 7.94681 11.4547 7.75036 11.3734C7.55392 11.2922 7.34338 11.2505 7.13079 11.2507M7.13079 2.2915H3.90163C3.69014 2.29129 3.48068 2.33278 3.28525 2.41361C3.08981 2.49444 2.91224 2.61303 2.7627 2.76257C2.61315 2.91212 2.49457 3.08969 2.41373 3.28513C2.3329 3.48056 2.29141 3.69002 2.29163 3.90151V7.13067C2.29118 7.55857 2.4604 7.9692 2.76219 8.27255C3.06398 8.57591 3.47373 8.74724 3.90163 8.749H7.13079C7.34338 8.74922 7.55392 8.70751 7.75036 8.62626C7.94681 8.54501 8.1253 8.42581 8.27562 8.2755C8.42594 8.12518 8.54513 7.94668 8.62639 7.75024C8.70764 7.5538 8.74935 7.34326 8.74913 7.13067V3.90151C8.74736 3.47361 8.57603 3.06386 8.27268 2.76207C7.96932 2.46028 7.5587 2.29106 7.13079 2.2915ZM16.0983 2.2915H12.8691C12.4412 2.29106 12.0306 2.46028 11.7272 2.76207C11.4239 3.06386 11.2526 3.47361 11.2508 3.90151V7.13067C11.251 7.55981 11.4216 7.97131 11.725 8.27476C12.0285 8.57821 12.44 8.74878 12.8691 8.749H16.0983C16.5262 8.74724 16.9359 8.57591 17.2377 8.27255C17.5395 7.9692 17.7087 7.55857 17.7083 7.13067V3.90151C17.7085 3.69002 17.667 3.48056 17.5862 3.28513C17.5054 3.08969 17.3868 2.91212 17.2372 2.76257C17.0877 2.61303 16.9101 2.49444 16.7147 2.41361C16.5192 2.33278 16.3098 2.29129 16.0983 2.2915Z" stroke="white" stroke-width="1.5" stroke-linecap="round" stroke-linejoin="round"/>
</svg>
