<svg width="39" height="39" viewBox="0 0 39 39" fill="none" xmlns="http://www.w3.org/2000/svg">
<path d="M19.7704 13.2046C18.5961 13.2046 17.4481 13.5528 16.4717 14.2052C15.4953 14.8577 14.7342 15.785 14.2849 16.8699C13.8355 17.9548 13.7179 19.1487 13.947 20.3004C14.1761 21.4522 14.7416 22.5102 15.5719 23.3405C16.4023 24.1709 17.4603 24.7364 18.612 24.9655C19.7638 25.1946 20.9576 25.077 22.0426 24.6276C23.1275 24.1782 24.0548 23.4172 24.7072 22.4408C25.3597 21.4644 25.7079 20.3164 25.7079 19.1421C25.7079 17.5674 25.0823 16.0571 23.9688 14.9436C22.8553 13.8301 21.3451 13.2046 19.7704 13.2046ZM19.7704 22.7046C19.0658 22.7046 18.377 22.4957 17.7912 22.1042C17.2053 21.7127 16.7487 21.1564 16.4791 20.5054C16.2094 19.8544 16.1389 19.1381 16.2763 18.4471C16.4138 17.756 16.7531 17.1212 17.2513 16.623C17.7495 16.1248 18.3843 15.7855 19.0754 15.648C19.7664 15.5106 20.4827 15.5811 21.1337 15.8508C21.7847 16.1204 22.341 16.577 22.7325 17.1629C23.1239 17.7487 23.3329 18.4375 23.3329 19.1421C23.3329 20.0869 22.9576 20.9931 22.2895 21.6612C21.6214 22.3293 20.7152 22.7046 19.7704 22.7046ZM36.3954 8.45459H3.14539C2.83044 8.45459 2.5284 8.5797 2.3057 8.8024C2.083 9.0251 1.95789 9.32715 1.95789 9.64209V28.6421C1.95789 28.957 2.083 29.2591 2.3057 29.4818C2.5284 29.7045 2.83044 29.8296 3.14539 29.8296H36.3954C36.7103 29.8296 37.0124 29.7045 37.2351 29.4818C37.4578 29.2591 37.5829 28.957 37.5829 28.6421V9.64209C37.5829 9.32715 37.4578 9.0251 37.2351 8.8024C37.0124 8.5797 36.7103 8.45459 36.3954 8.45459ZM29.5153 27.4546H10.0255C9.62677 26.1062 8.89705 24.879 7.90278 23.8847C6.90851 22.8904 5.68129 22.1607 4.33289 21.762V16.5222C5.68129 16.1235 6.90851 15.3938 7.90278 14.3995C8.89705 13.4052 9.62677 12.178 10.0255 10.8296H29.5153C29.914 12.178 30.6437 13.4052 31.638 14.3995C32.6323 15.3938 33.8595 16.1235 35.2079 16.5222V21.762C33.8595 22.1607 32.6323 22.8904 31.638 23.8847C30.6437 24.879 29.914 26.1062 29.5153 27.4546ZM35.2079 14.0017C33.7835 13.3892 32.6482 12.2539 32.0358 10.8296H35.2079V14.0017ZM7.50499 10.8296C6.89253 12.2539 5.75724 13.3892 4.33289 14.0017V10.8296H7.50499ZM4.33289 24.2825C5.75724 24.8949 6.89253 26.0302 7.50499 27.4546H4.33289V24.2825ZM32.0358 27.4546C32.6482 26.0302 33.7835 24.8949 35.2079 24.2825V27.4546H32.0358Z" fill="white"/>
</svg>
