<svg width="21" height="21" viewBox="0 0 21 21" fill="none" xmlns="http://www.w3.org/2000/svg">
<path d="M14.8198 9.4375C14.8198 9.60326 14.754 9.76223 14.6368 9.87944C14.5196 9.99665 14.3606 10.0625 14.1948 10.0625H9.19482C9.02906 10.0625 8.87009 9.99665 8.75288 9.87944C8.63567 9.76223 8.56982 9.60326 8.56982 9.4375C8.56982 9.27174 8.63567 9.11277 8.75288 8.99556C8.87009 8.87835 9.02906 8.8125 9.19482 8.8125H14.1948C14.3606 8.8125 14.5196 8.87835 14.6368 8.99556C14.754 9.11277 14.8198 9.27174 14.8198 9.4375ZM14.1948 11.3125H9.19482C9.02906 11.3125 8.87009 11.3783 8.75288 11.4956C8.63567 11.6128 8.56982 11.7717 8.56982 11.9375C8.56982 12.1033 8.63567 12.2622 8.75288 12.3794C8.87009 12.4967 9.02906 12.5625 9.19482 12.5625H14.1948C14.3606 12.5625 14.5196 12.4967 14.6368 12.3794C14.754 12.2622 14.8198 12.1033 14.8198 11.9375C14.8198 11.7717 14.754 11.6128 14.6368 11.4956C14.5196 11.3783 14.3606 11.3125 14.1948 11.3125ZM17.9448 4.4375V16.9375C17.9448 17.269 17.8131 17.587 17.5787 17.8214C17.3443 18.0558 17.0263 18.1875 16.6948 18.1875H4.19482C3.8633 18.1875 3.54536 18.0558 3.31094 17.8214C3.07652 17.587 2.94482 17.269 2.94482 16.9375V4.4375C2.94482 4.10598 3.07652 3.78804 3.31094 3.55362C3.54536 3.3192 3.8633 3.1875 4.19482 3.1875H16.6948C17.0263 3.1875 17.3443 3.3192 17.5787 3.55362C17.8131 3.78804 17.9448 4.10598 17.9448 4.4375ZM4.19482 16.9375H6.06982V4.4375H4.19482V16.9375ZM16.6948 16.9375V4.4375H7.31982V16.9375H16.6948Z" fill="white" fill-opacity="0.5"/>
</svg>
