<svg width="21" height="21" viewBox="0 0 21 21" fill="none" xmlns="http://www.w3.org/2000/svg">
<path d="M18.4163 16.5098H17.7913V4.00977C17.7913 3.84401 17.7254 3.68503 17.6082 3.56782C17.491 3.45061 17.332 3.38477 17.1663 3.38477H12.7913C12.6255 3.38477 12.4665 3.45061 12.3493 3.56782C12.2321 3.68503 12.1663 3.84401 12.1663 4.00977V7.13477H8.41626C8.2505 7.13477 8.09153 7.20061 7.97432 7.31782C7.85711 7.43503 7.79126 7.59401 7.79126 7.75977V10.8848H4.66626C4.5005 10.8848 4.34153 10.9506 4.22432 11.0678C4.10711 11.185 4.04126 11.344 4.04126 11.5098V16.5098H3.41626C3.2505 16.5098 3.09153 16.5756 2.97432 16.6928C2.85711 16.81 2.79126 16.969 2.79126 17.1348C2.79126 17.3005 2.85711 17.4595 2.97432 17.5767C3.09153 17.6939 3.2505 17.7598 3.41626 17.7598H18.4163C18.582 17.7598 18.741 17.6939 18.8582 17.5767C18.9754 17.4595 19.0413 17.3005 19.0413 17.1348C19.0413 16.969 18.9754 16.81 18.8582 16.6928C18.741 16.5756 18.582 16.5098 18.4163 16.5098ZM13.4163 4.63477H16.5413V16.5098H13.4163V4.63477ZM9.04126 8.38477H12.1663V16.5098H9.04126V8.38477ZM5.29126 12.1348H7.79126V16.5098H5.29126V12.1348Z" fill="white" fill-opacity="0.5"/>
</svg>
