<svg width="21" height="21" viewBox="0 0 21 21" fill="none" xmlns="http://www.w3.org/2000/svg">
<path d="M10.6775 6.34683C9.93584 6.34683 9.21081 6.56676 8.59413 6.97882C7.97744 7.39087 7.4968 7.97654 7.21297 8.66177C6.92914 9.34699 6.85488 10.101 6.99957 10.8284C7.14427 11.5558 7.50142 12.224 8.02587 12.7485C8.55031 13.2729 9.2185 13.6301 9.94593 13.7748C10.6734 13.9195 11.4274 13.8452 12.1126 13.5614C12.7978 13.2775 13.3835 12.7969 13.7955 12.1802C14.2076 11.5635 14.4275 10.8385 14.4275 10.0968C14.4265 9.10258 14.0311 8.14936 13.328 7.44632C12.625 6.74328 11.6718 6.34786 10.6775 6.34683ZM10.6775 12.5968C10.1831 12.5968 9.69971 12.4502 9.28859 12.1755C8.87747 11.9008 8.55704 11.5104 8.36782 11.0535C8.1786 10.5967 8.12909 10.0941 8.22555 9.6091C8.32202 9.12415 8.56012 8.67869 8.90975 8.32906C9.25938 7.97943 9.70484 7.74133 10.1898 7.64486C10.6747 7.5484 11.1774 7.59791 11.6342 7.78713C12.091 7.97635 12.4815 8.29678 12.7562 8.7079C13.0309 9.11903 13.1775 9.60237 13.1775 10.0968C13.1775 10.7599 12.9141 11.3958 12.4453 11.8646C11.9764 12.3334 11.3406 12.5968 10.6775 12.5968ZM19.2666 8.47261C19.2492 8.3846 19.213 8.30136 19.1606 8.22857C19.1081 8.15577 19.0406 8.09512 18.9627 8.05073L16.6322 6.72261L16.6228 4.09605C16.6225 4.00559 16.6026 3.91627 16.5645 3.83426C16.5263 3.75225 16.4708 3.6795 16.4017 3.62105C15.5564 2.90597 14.5829 2.35797 13.533 2.0062C13.4503 1.97822 13.3627 1.96786 13.2758 1.9758C13.1888 1.98374 13.1045 2.0098 13.0283 2.0523L10.6775 3.36636L8.32439 2.04995C8.24811 2.00721 8.1637 1.98096 8.07663 1.97289C7.98956 1.96481 7.90177 1.9751 7.81892 2.00308C6.76982 2.35742 5.79743 2.9075 4.9533 3.62417C4.88437 3.68254 4.82891 3.75516 4.79074 3.83703C4.75257 3.9189 4.7326 4.00806 4.7322 4.09839L4.72049 6.7273L2.39002 8.05542C2.31205 8.09981 2.24455 8.16046 2.19211 8.23326C2.13967 8.30605 2.10352 8.38928 2.08611 8.4773C1.87283 9.54908 1.87283 10.6524 2.08611 11.7242C2.10352 11.8122 2.13967 11.8954 2.19211 11.9682C2.24455 12.041 2.31205 12.1017 2.39002 12.146L4.72049 13.4742L4.72986 16.1007C4.73014 16.1912 4.75006 16.2805 4.78823 16.3625C4.8264 16.4445 4.88192 16.5173 4.95095 16.5757C5.79632 17.2908 6.76983 17.8388 7.8197 18.1906C7.90238 18.2186 7.99001 18.2289 8.07693 18.221C8.16385 18.213 8.24815 18.187 8.32439 18.1445L10.6775 16.8273L13.0306 18.1437C13.1238 18.1956 13.2287 18.2225 13.3353 18.2218C13.4036 18.2218 13.4714 18.2107 13.5361 18.189C14.5851 17.8351 15.5575 17.2856 16.4017 16.5695C16.4707 16.5111 16.5261 16.4385 16.5643 16.3566C16.6025 16.2748 16.6224 16.1856 16.6228 16.0953L16.6345 13.4664L18.965 12.1382C19.043 12.0938 19.1105 12.0332 19.1629 11.9604C19.2154 11.8876 19.2515 11.8044 19.2689 11.7164C19.481 10.6454 19.4802 9.54323 19.2666 8.47261ZM18.0947 11.2L15.8627 12.4695C15.7649 12.5251 15.6839 12.6061 15.6283 12.7039C15.583 12.782 15.5353 12.8648 15.4869 12.9429C15.4249 13.0414 15.3919 13.1554 15.3916 13.2718L15.3799 15.7914C14.7799 16.2625 14.1115 16.6392 13.3978 16.9085L11.1463 15.6539C11.0528 15.6021 10.9476 15.5752 10.8408 15.5757H10.826C10.7314 15.5757 10.6361 15.5757 10.5416 15.5757C10.4298 15.5729 10.3192 15.5999 10.2213 15.6539L7.96814 16.9117C7.25292 16.6444 6.58269 16.2695 5.98064 15.8L5.97205 13.2843C5.97166 13.1677 5.93865 13.0535 5.87674 12.9546C5.8283 12.8765 5.78064 12.7984 5.73611 12.7156C5.68089 12.6163 5.59993 12.5337 5.50174 12.4765L3.26736 11.2039C3.15174 10.4725 3.15174 9.72744 3.26736 8.99605L5.49549 7.72417C5.59328 7.66856 5.67425 7.58759 5.72986 7.4898C5.77517 7.41167 5.82283 7.32886 5.87127 7.25073C5.93327 7.15221 5.9663 7.03823 5.96658 6.92183L5.9783 4.4023C6.57824 3.93116 7.24663 3.55442 7.96033 3.28511L10.2088 4.5398C10.3066 4.59404 10.4172 4.62102 10.5291 4.61792C10.6236 4.61792 10.7189 4.61792 10.8135 4.61792C10.9253 4.62071 11.0358 4.59375 11.1338 4.5398L13.3869 3.28198C14.1021 3.54923 14.7723 3.92412 15.3744 4.3937L15.383 6.90933C15.3834 7.02596 15.4164 7.14017 15.4783 7.23902C15.5267 7.31714 15.5744 7.39527 15.6189 7.47808C15.6741 7.57738 15.7551 7.65997 15.8533 7.71714L18.0877 8.9898C18.2048 9.72175 18.2062 10.4676 18.0916 11.2H18.0947Z" fill="white" fill-opacity="0.5"/>
</svg>
