<svg width="21" height="21" viewBox="0 0 21 21" fill="none" xmlns="http://www.w3.org/2000/svg">
<g clip-path="url(#clip0_15_1861)">
<path d="M19.4722 10.23H17.5683C17.4201 8.63006 16.7171 7.13233 15.581 5.99618C14.4448 4.86003 12.9471 4.15701 11.3472 4.00889V2.10498C11.3472 1.93922 11.2813 1.78025 11.1641 1.66304C11.0469 1.54583 10.8879 1.47998 10.7222 1.47998C10.5564 1.47998 10.3974 1.54583 10.2802 1.66304C10.163 1.78025 10.0972 1.93922 10.0972 2.10498V4.00889C8.49725 4.15701 6.99952 4.86003 5.86337 5.99618C4.72722 7.13233 4.0242 8.63006 3.87607 10.23H1.97217C1.80641 10.23 1.64744 10.2958 1.53023 10.413C1.41302 10.5302 1.34717 10.6892 1.34717 10.855C1.34717 11.0207 1.41302 11.1797 1.53023 11.2969C1.64744 11.4141 1.80641 11.48 1.97217 11.48H3.87607C4.0242 13.0799 4.72722 14.5776 5.86337 15.7138C6.99952 16.8499 8.49725 17.5529 10.0972 17.7011V19.605C10.0972 19.7707 10.163 19.9297 10.2802 20.0469C10.3974 20.1641 10.5564 20.23 10.7222 20.23C10.8879 20.23 11.0469 20.1641 11.1641 20.0469C11.2813 19.9297 11.3472 19.7707 11.3472 19.605V17.7011C12.9471 17.5529 14.4448 16.8499 15.581 15.7138C16.7171 14.5776 17.4201 13.0799 17.5683 11.48H19.4722C19.6379 11.48 19.7969 11.4141 19.9141 11.2969C20.0313 11.1797 20.0972 11.0207 20.0972 10.855C20.0972 10.6892 20.0313 10.5302 19.9141 10.413C19.7969 10.2958 19.6379 10.23 19.4722 10.23ZM10.7222 16.48C9.60965 16.48 8.52211 16.1501 7.59708 15.532C6.67206 14.9139 5.95109 14.0354 5.52535 13.0076C5.0996 11.9797 4.98821 10.8487 5.20525 9.7576C5.42229 8.66645 5.95802 7.66418 6.74469 6.8775C7.53136 6.09083 8.53364 5.55511 9.62479 5.33806C10.7159 5.12102 11.8469 5.23242 12.8748 5.65816C13.9026 6.0839 14.7811 6.80487 15.3992 7.7299C16.0173 8.65492 16.3472 9.74246 16.3472 10.855C16.3455 12.3463 15.7524 13.7761 14.6978 14.8306C13.6433 15.8852 12.2135 16.4783 10.7222 16.48ZM10.7222 7.72998C10.1041 7.72998 9.49991 7.91326 8.98601 8.25664C8.47211 8.60002 8.07157 9.08808 7.83504 9.65909C7.59852 10.2301 7.53663 10.8584 7.65721 11.4646C7.77779 12.0708 8.07542 12.6277 8.51246 13.0647C8.9495 13.5017 9.50632 13.7994 10.1125 13.9199C10.7187 14.0405 11.347 13.9786 11.9181 13.7421C12.4891 13.5056 12.9771 13.105 13.3205 12.5911C13.6639 12.0772 13.8472 11.473 13.8472 10.855C13.8472 10.0262 13.5179 9.23132 12.9319 8.64527C12.3458 8.05922 11.551 7.72998 10.7222 7.72998ZM10.7222 12.73C10.3513 12.73 9.98882 12.62 9.68047 12.414C9.37213 12.208 9.13181 11.9151 8.98989 11.5725C8.84798 11.2299 8.81085 10.8529 8.8832 10.4892C8.95554 10.1255 9.13412 9.79138 9.39634 9.52915C9.65857 9.26693 9.99266 9.08836 10.3564 9.01601C10.7201 8.94366 11.0971 8.98079 11.4397 9.12271C11.7823 9.26462 12.0751 9.50494 12.2812 9.81329C12.4872 10.1216 12.5972 10.4841 12.5972 10.855C12.5972 11.3523 12.3996 11.8292 12.048 12.1808C11.6964 12.5324 11.2194 12.73 10.7222 12.73Z" fill="white" fill-opacity="0.5"/>
</g>
<defs>
<clipPath id="clip0_15_1861">
<rect width="20" height="20" fill="white" transform="translate(0.722168 0.85498)"/>
</clipPath>
</defs>
</svg>
