<svg width="14" height="18" viewBox="0 0 14 18" fill="none" xmlns="http://www.w3.org/2000/svg">
<path d="M10.2063 8.96289C10.2063 9.12865 10.1405 9.28762 10.0232 9.40483C9.90603 9.52204 9.74706 9.58789 9.5813 9.58789H4.5813C4.41554 9.58789 4.25657 9.52204 4.13936 9.40483C4.02215 9.28762 3.9563 9.12865 3.9563 8.96289C3.9563 8.79713 4.02215 8.63816 4.13936 8.52095C4.25657 8.40374 4.41554 8.33789 4.5813 8.33789H9.5813C9.74706 8.33789 9.90603 8.40374 10.0232 8.52095C10.1405 8.63816 10.2063 8.79713 10.2063 8.96289ZM9.5813 10.8379H4.5813C4.41554 10.8379 4.25657 10.9037 4.13936 11.0209C4.02215 11.1382 3.9563 11.2971 3.9563 11.4629C3.9563 11.6287 4.02215 11.7876 4.13936 11.9048C4.25657 12.022 4.41554 12.0879 4.5813 12.0879H9.5813C9.74706 12.0879 9.90603 12.022 10.0232 11.9048C10.1405 11.7876 10.2063 11.6287 10.2063 11.4629C10.2063 11.2971 10.1405 11.1382 10.0232 11.0209C9.90603 10.9037 9.74706 10.8379 9.5813 10.8379ZM13.9563 2.08789V14.5879C13.9563 15.2509 13.6929 15.8868 13.2241 16.3557C12.7552 16.8245 12.1193 17.0879 11.4563 17.0879H2.7063C2.04326 17.0879 1.40737 16.8245 0.938532 16.3557C0.469691 15.8868 0.206299 15.2509 0.206299 14.5879V2.08789C0.206299 1.92213 0.272147 1.76316 0.389357 1.64595C0.506567 1.52874 0.665539 1.46289 0.831299 1.46289H2.7063V0.837891C2.7063 0.67213 2.77215 0.513159 2.88936 0.395949C3.00657 0.278739 3.16554 0.212891 3.3313 0.212891C3.49706 0.212891 3.65603 0.278739 3.77324 0.395949C3.89045 0.513159 3.9563 0.67213 3.9563 0.837891V1.46289H6.4563V0.837891C6.4563 0.67213 6.52215 0.513159 6.63936 0.395949C6.75657 0.278739 6.91554 0.212891 7.0813 0.212891C7.24706 0.212891 7.40603 0.278739 7.52324 0.395949C7.64045 0.513159 7.7063 0.67213 7.7063 0.837891V1.46289H10.2063V0.837891C10.2063 0.67213 10.2721 0.513159 10.3894 0.395949C10.5066 0.278739 10.6655 0.212891 10.8313 0.212891C10.9971 0.212891 11.156 0.278739 11.2732 0.395949C11.3905 0.513159 11.4563 0.67213 11.4563 0.837891V1.46289H13.3313C13.4971 1.46289 13.656 1.52874 13.7732 1.64595C13.8905 1.76316 13.9563 1.92213 13.9563 2.08789ZM12.7063 2.71289H11.4563V3.33789C11.4563 3.50365 11.3905 3.66262 11.2732 3.77983C11.156 3.89704 10.9971 3.96289 10.8313 3.96289C10.6655 3.96289 10.5066 3.89704 10.3894 3.77983C10.2721 3.66262 10.2063 3.50365 10.2063 3.33789V2.71289H7.7063V3.33789C7.7063 3.50365 7.64045 3.66262 7.52324 3.77983C7.40603 3.89704 7.24706 3.96289 7.0813 3.96289C6.91554 3.96289 6.75657 3.89704 6.63936 3.77983C6.52215 3.66262 6.4563 3.50365 6.4563 3.33789V2.71289H3.9563V3.33789C3.9563 3.50365 3.89045 3.66262 3.77324 3.77983C3.65603 3.89704 3.49706 3.96289 3.3313 3.96289C3.16554 3.96289 3.00657 3.89704 2.88936 3.77983C2.77215 3.66262 2.7063 3.50365 2.7063 3.33789V2.71289H1.4563V14.5879C1.4563 14.9194 1.58799 15.2374 1.82242 15.4718C2.05684 15.7062 2.37478 15.8379 2.7063 15.8379H11.4563C11.7878 15.8379 12.1058 15.7062 12.3402 15.4718C12.5746 15.2374 12.7063 14.9194 12.7063 14.5879V2.71289Z" fill="white"/>
</svg>
